<?xml version="1.0" encoding="UTF-8"?>
<svg xmlns="http://www.w3.org/2000/svg" xmlns:xlink="http://www.w3.org/1999/xlink" viewBox="0 0 22 22" width="22px" height="22px">
<g id="surface8285745">
<path style=" stroke:none;fill-rule:nonzero;fill:rgb(100%,100%,100%);fill-opacity:1;" d="M 0.441406 3.960938 C 0.195312 3.960938 0 4.15625 0 4.398438 L 0 10.609375 C 0 13.320312 2.058594 15.679688 4.765625 15.832031 C 7.363281 15.976562 9.570312 14.15625 10.03125 11.726562 C 10.28125 12.066406 10.535156 12.378906 10.792969 12.667969 L 9.242188 19.257812 C 9.210938 19.390625 9.242188 19.527344 9.324219 19.632812 C 9.410156 19.738281 9.535156 19.800781 9.667969 19.800781 L 11.921875 19.800781 C 12.125 19.800781 12.300781 19.664062 12.347656 19.464844 C 12.621094 18.3125 13.050781 16.503906 13.4375 14.867188 L 13.839844 15.097656 C 14.792969 15.589844 15.757812 15.839844 16.71875 15.839844 C 19.882812 15.839844 22.40625 13.042969 21.945312 9.789062 C 21.640625 7.636719 19.980469 5.859375 17.855469 5.402344 C 15.378906 4.867188 12.992188 6.136719 11.964844 8.246094 C 11.964844 8.246094 11.851562 8.5 11.757812 8.753906 C 11.035156 7.5 10.605469 6.203125 10.382812 5.261719 C 10.300781 4.917969 10.179688 4.296875 10.167969 4.253906 C 10.105469 4.078125 9.9375 3.960938 9.75 3.960938 L 7.480469 3.960938 C 7.238281 3.960938 7.039062 4.15625 7.039062 4.398438 L 7.039062 10.691406 C 7.039062 11.726562 6.285156 12.648438 5.257812 12.75 C 4.078125 12.867188 3.078125 11.9375 3.078125 10.78125 L 3.078125 4.398438 C 3.078125 4.15625 2.882812 3.960938 2.640625 3.960938 Z M 16.71875 8.359375 C 17.933594 8.359375 18.921875 9.347656 18.921875 10.558594 C 18.921875 11.773438 17.933594 12.761719 16.71875 12.761719 C 15.742188 12.761719 14.832031 12.167969 14.199219 11.65625 C 14.429688 10.675781 14.585938 10.019531 14.589844 10.007812 C 14.839844 9.039062 15.714844 8.359375 16.71875 8.359375 Z M 16.71875 8.359375 "/>
</g>
</svg>
